<?xml version="1.0" standalone="no"?><!DOCTYPE svg PUBLIC "-//W3C//DTD SVG 1.1//EN" "http://www.w3.org/Graphics/SVG/1.1/DTD/svg11.dtd"><svg t="1498008655942" class="icon" style="" viewBox="0 0 1024 1024" version="1.1" xmlns="http://www.w3.org/2000/svg" p-id="3051" xmlns:xlink="http://www.w3.org/1999/xlink" width="200" height="200"><defs><style type="text/css"></style></defs><path d="M850.964267 173.579733l-677.384533 0c-46.570667 0-84.673067 38.1024-84.673067 84.673067l0 508.0384c0 46.570667 38.1024 84.673067 84.673067 84.673067l677.384533 0c46.570667 0 84.673067-38.1024 84.673067-84.673067L935.637333 258.2528C935.637333 211.6832 897.533867 173.579733 850.964267 173.579733zM850.964267 766.2912l-84.673067 0L766.2912 393.730133 512.272 554.609067 258.2528 393.730133l0 372.561067-84.673067 0L173.579733 258.2528l50.804267 0 287.888 177.813333 287.888-177.813333 50.804267 0L850.964267 766.2912z" p-id="3052"></path></svg>